<svg xmlns="http://www.w3.org/2000/svg" version="1.1" xmlns:xlink="http://www.w3.org/1999/xlink" xmlns:svgjs="http://svgjs.com/svgjs" width="32" height="32">
	<svg width="32" height="32" viewBox="0 0 32 32" fill="none" xmlns="http://www.w3.org/2000/svg">
		<path d="M20.4679 18.7963H11.5321C11.0519 18.7963 10.6696 18.3855 10.6696 17.8906V14.1094C10.6696 13.6052 11.0608 13.2037 11.5321 13.2037H20.4679C20.948 13.2037 21.3304 13.6145 21.3304 14.1094V17.8906C21.3393 18.3948 20.948 18.7963 20.4679 18.7963Z" fill="currentcolor"></path>
		<path d="M31.1375 7.59253H0.862463C0.382329 7.59253 0 7.18173 0 6.68689V2.90563C0 2.40147 0.391221 2 0.862463 2H31.1375C31.6177 2 32 2.4108 32 2.90563V6.68689C32 7.19106 31.6177 7.59253 31.1375 7.59253Z" fill="currentColor"></path>
		<path d="M31.1375 18.7963H27.5365C27.0564 18.7963 26.6741 18.3855 26.6741 17.8906V14.1094C26.6741 13.6052 27.0653 13.2037 27.5365 13.2037H31.1375C31.6177 13.2037 32 13.6145 32 14.1094V17.8906C32 18.3948 31.6177 18.7963 31.1375 18.7963Z" fill="currentColor"></path>
		<path d="M31.1375 30H11.5321C11.0519 30 10.6696 29.5892 10.6696 29.0944V25.3131C10.6696 24.8089 11.0608 24.4075 11.5321 24.4075H31.1375C31.6177 24.4075 32 24.8183 32 25.3131V29.0944C32 29.5985 31.6177 30 31.1375 30Z" fill="currentColor"></path>
		<path d="M4.47236 18.7963H0.871356C0.391223 18.7963 0.00889587 18.3855 0.00889587 17.8906V14.1094C0.00889587 13.6052 0.400114 13.2037 0.871356 13.2037H4.47236C4.95249 13.2037 5.33482 13.6145 5.33482 14.1094V17.8906C5.33482 18.3948 4.9436 18.7963 4.47236 18.7963Z" fill="currentColor"></path>
		<path d="M4.47236 30H0.871356C0.391223 30 0.00889587 29.5892 0.00889587 29.0944V25.3131C0.00889587 24.8089 0.400114 24.4075 0.871356 24.4075H4.47236C4.95249 24.4075 5.33482 24.8183 5.33482 25.3131V29.0944C5.33482 29.5985 4.9436 30 4.47236 30Z" fill="currentColor"></path>
	</svg>
	<style>
		:root { color: #334061; }
		@media (prefers-color-scheme: dark) { :root { color: #FFFFFF; } }
</style>
</svg>
