<svg width="32" height="32" viewBox="0 0 32 32" fill="none" xmlns="http://www.w3.org/2000/svg">
<path fill-rule="evenodd" clip-rule="evenodd" d="M0 4C0 1.79086 1.79086 0 4 0H28C30.2091 0 32 1.79086 32 4V28C32 30.2091 30.2091 32 28 32H4C1.79086 32 0 30.2091 0 28V4ZM19.3509 17.9973H12.6491C12.289 17.9973 12.0022 17.7039 12.0022 17.3505V14.6496C12.0022 14.2894 12.2956 14.0027 12.6491 14.0027H19.3509C19.711 14.0027 19.9978 14.2961 19.9978 14.6496V17.3505C20.0045 17.7106 19.711 17.9973 19.3509 17.9973ZM4.64685 9.99467H27.3532C27.7133 9.99467 28 9.7079 28 9.34778V6.64688C28 6.29343 27.7133 6 27.3532 6H4.64685C4.29342 6 4 6.28676 4 6.64688V9.34778C4 9.70123 4.28675 9.99467 4.64685 9.99467ZM27.3532 17.9973H24.6524C24.2923 17.9973 24.0056 17.7039 24.0056 17.3505V14.6496C24.0056 14.2894 24.299 14.0027 24.6524 14.0027H27.3532C27.7133 14.0027 28 14.2961 28 14.6496V17.3505C28 17.7106 27.7133 17.9973 27.3532 17.9973ZM12.6491 26H27.3532C27.7133 26 28 25.7132 28 25.3531V22.6522C28 22.2988 27.7133 22.0053 27.3532 22.0053H12.6491C12.2956 22.0053 12.0022 22.2921 12.0022 22.6522V25.3531C12.0022 25.7066 12.289 26 12.6491 26ZM7.35426 17.9973H4.65351C4.29341 17.9973 4.00667 17.7039 4.00667 17.3505V14.6496C4.00667 14.2894 4.30008 14.0027 4.65351 14.0027H7.35426C7.71436 14.0027 8.00111 14.2961 8.00111 14.6496V17.3505C8.00111 17.7106 7.7077 17.9973 7.35426 17.9973ZM4.65351 26H7.35426C7.7077 26 8.00111 25.7132 8.00111 25.3531V22.6522C8.00111 22.2988 7.71436 22.0053 7.35426 22.0053H4.65351C4.30008 22.0053 4.00667 22.2921 4.00667 22.6522V25.3531C4.00667 25.7066 4.29341 26 4.65351 26Z" fill="black"/>
</svg>
