<svg width="512" height="512" viewBox="0 0 512 512" fill="none" xmlns="http://www.w3.org/2000/svg">
<rect width="512" height="512" rx="30" fill="#EF4444"/>
<path d="M98 357.4L29 229.6H62L108.8 328.3L91.7 327.7L134.6 229.6H165.8L99.5 357.4H98Z" fill="white"/>
<path d="M175.442 306.1V305.8L295.742 154H296.042V283.9H321.542V306.1H296.042V353.8H266.942V306.1H175.442ZM268.742 219.7L218.042 285.4L213.542 283.9H266.942V214.3L268.742 219.7Z" fill="white"/>
<path d="M402.889 289C392.689 289 383.089 286.3 374.089 280.9C365.089 275.5 357.689 268.1 351.889 258.7C346.289 249.1 343.489 238.3 343.489 226.3C343.489 212.3 346.689 200.2 353.089 190C359.689 179.6 368.189 171.6 378.589 166C388.989 160.4 400.189 157.6 412.189 157.6C425.589 157.6 437.589 160.5 448.189 166.3C458.989 172.1 467.489 180.2 473.689 190.6C480.089 201 483.289 213 483.289 226.6C483.289 242.2 480.289 256.4 474.289 269.2C468.489 282 460.789 293.7 451.189 304.3C441.589 314.7 430.989 324.3 419.389 333.1C407.789 341.7 396.189 349.9 384.589 357.7L365.389 336.4C381.989 327.8 396.389 318.8 408.589 309.4C420.789 300 430.389 290.6 437.389 281.2C444.389 271.6 448.489 262.6 449.689 254.2L458.089 254.5C452.089 265.7 444.889 274.3 436.489 280.3C428.289 286.1 417.089 289 402.889 289ZM413.389 264.4C425.189 264.4 434.789 261 442.189 254.2C449.789 247.4 453.589 238.6 453.589 227.8V222.4C453.389 215 451.489 208.4 447.889 202.6C444.289 196.8 439.489 192.2 433.489 188.8C427.489 185.4 420.789 183.7 413.389 183.7C405.989 183.7 399.189 185.4 392.989 188.8C386.989 192.2 382.189 197 378.589 203.2C375.189 209.2 373.489 216.3 373.489 224.5C373.489 232.5 375.289 239.6 378.889 245.8C382.489 251.8 387.289 256.4 393.289 259.6C399.289 262.8 405.989 264.4 413.389 264.4Z" fill="white"/>
</svg>
