<?xml version="1.0" standalone="no"?>
<!DOCTYPE svg PUBLIC "-//W3C//DTD SVG 20010904//EN"
 "http://www.w3.org/TR/2001/REC-SVG-20010904/DTD/svg10.dtd">
<svg version="1.0" xmlns="http://www.w3.org/2000/svg"
 width="700.000000pt" height="700.000000pt" viewBox="0 0 700.000000 700.000000"
 preserveAspectRatio="xMidYMid meet">
<metadata>
Created by potrace 1.14, written by Peter Selinger 2001-2017
</metadata>
<g transform="translate(0.000000,700.000000) scale(0.100000,-0.100000)"
fill="#000000" stroke="none">
<path d="M300 6984 c-30 -8 -73 -26 -96 -39 -63 -37 -149 -136 -176 -202 l-23
-58 0 -3185 0 -3185 23 -58 c27 -67 112 -163 177 -201 101 -60 -130 -56 3295
-56 3421 0 3196 -4 3295 55 51 30 119 98 150 152 59 99 55 -125 55 3293 0
3418 4 3194 -55 3293 -31 54 -99 122 -150 152 -99 59 127 55 -3300 54 -2731 0
-3147 -2 -3195 -15z m3925 -3864 l175 0 0 -150 0 -150 -175 0 -175 0 0 -330 0
-330 -200 0 -200 0 0 330 0 330 -624 2 -623 3 634 800 c349 440 718 906 821
1035 l187 235 3 -887 2 -888 175 0z m1540 1716 c148 -12 332 -80 459 -170 78
-56 200 -185 244 -259 51 -85 99 -203 118 -292 23 -107 23 -336 0 -465 -61
-341 -270 -690 -586 -979 -172 -158 -287 -246 -608 -470 l-132 -92 -53 58
c-117 126 -207 228 -207 234 0 3 21 15 48 28 166 80 481 288 637 421 120 102
315 311 315 336 0 3 -12 -3 -27 -14 -51 -36 -131 -72 -210 -94 -65 -18 -104
-22 -233 -23 -135 0 -165 3 -230 23 -309 96 -540 360 -590 674 -16 97 -8 321
14 403 65 243 222 443 445 570 139 78 350 129 491 118 19 -1 67 -5 105 -7z
m-4664 -1511 c138 -291 255 -534 259 -538 4 -4 113 234 242 530 l236 538 211
3 c116 1 211 -1 211 -5 -1 -20 -900 -1738 -910 -1738 -9 0 -558 1005 -886
1623 l-66 122 226 -2 226 -3 251 -530z"/>
<path d="M3323 3542 l-321 -417 320 -3 c177 -1 323 -1 325 1 2 2 2 191 1 420
l-3 416 -322 -417z"/>
<path d="M5545 4480 c-161 -29 -308 -138 -381 -282 -53 -105 -71 -296 -38
-422 47 -181 189 -324 369 -371 77 -20 243 -20 320 0 187 48 325 179 370 350
19 76 19 240 0 324 -41 174 -179 323 -354 381 -74 24 -209 34 -286 20z"/>
</g>
</svg>
